<?xml version="1.0" standalone="no"?>
<!DOCTYPE svg PUBLIC "-//W3C//DTD SVG 20010904//EN"
 "http://www.w3.org/TR/2001/REC-SVG-20010904/DTD/svg10.dtd">
<svg version="1.0" xmlns="http://www.w3.org/2000/svg"
 width="800.000000pt" height="800.000000pt" viewBox="0 0 800.000000 800.000000"
 preserveAspectRatio="xMidYMid meet">
<metadata>
Created by potrace 1.11, written by Peter Selinger 2001-2013
</metadata>
<g transform="translate(0.000000,800.000000) scale(0.100000,-0.100000)"
fill="#000000" stroke="none">
<path d="M4735 7968 l-28 -24 -6 -220 c-4 -120 -10 -225 -14 -231 -17 -26 -75
-203 -67 -203 9 0 23 -31 16 -37 -2 -2 -111 10 -242 26 -497 63 -517 62 -1024
-18 -107 -17 -203 -33 -214 -35 -16 -4 -15 -1 5 21 20 22 21 25 5 19 -13 -4
-17 -2 -13 8 3 8 -1 17 -8 20 -8 3 -22 22 -30 43 -13 31 -15 60 -10 158 3 66
10 145 15 175 7 43 8 33 4 -47 -5 -93 -3 -110 26 -205 17 -57 34 -111 36 -120
3 -11 15 -18 29 -18 l24 0 -20 48 c-48 109 -59 184 -60 396 l-2 201 -12 -100
c-9 -78 -12 -89 -14 -50 0 28 -4 80 -8 118 l-6 67 -36 0 c-57 -1 -139 -60
-172 -123 -33 -63 -118 -413 -139 -568 -6 -46 -17 -124 -26 -174 -8 -49 -21
-198 -28 -330 -9 -164 -14 -210 -15 -145 -1 65 -4 90 -11 80 -5 -8 -10 -10
-10 -5 0 22 -31 -50 -36 -86 -4 -22 -10 -39 -14 -39 -3 0 -7 -6 -7 -12 0 -7
-8 -56 -17 -108 -40 -235 -59 -629 -72 -1561 l-6 -396 -79 -37 c-199 -93 -442
-297 -549 -461 -69 -107 -219 -413 -268 -550 -77 -213 -173 -598 -207 -826
-27 -188 -95 -816 -115 -1074 -35 -427 -49 -566 -106 -1015 -30 -239 -58 -456
-61 -482 l-6 -48 2882 0 2883 0 -6 38 c-3 20 -13 93 -21 162 -9 69 -31 238
-50 375 -39 291 -65 504 -100 845 -32 314 -127 981 -166 1175 -50 246 -195
720 -296 965 -44 108 -152 315 -205 393 -144 212 -424 443 -641 527 l-86 33 6
531 c7 686 -10 1187 -55 1586 l-8 65 -13 -63 c-11 -51 -12 -99 -2 -270 7 -114
15 -573 18 -1020 l6 -812 -30 11 c-28 9 -32 16 -42 72 -6 34 -16 170 -21 302
-14 338 -29 605 -37 640 -3 17 -9 98 -12 180 -4 112 -9 149 -18 147 -7 -1 -13
2 -13 8 0 5 -6 7 -14 4 -18 -7 -23 23 -30 176 -2 67 -11 134 -20 162 -15 41
-15 69 -5 235 22 362 -20 938 -91 1270 -33 150 -46 182 -93 217 -51 39 -88 43
-122 14z m-1055 -1623 c74 -19 145 -37 158 -41 22 -6 30 -28 13 -39 -11 -6
-201 44 -282 75 -136 51 -80 54 111 5z m-260 -143 c73 -25 160 -70 160 -81 0
-14 -48 -27 -215 -61 -143 -29 -278 -40 -323 -26 -11 4 -22 18 -25 31 -3 20
-2 23 9 14 11 -9 11 -5 4 20 -6 20 -5 33 2 37 7 5 8 2 3 -6 -5 -9 -4 -11 4 -6
7 4 10 13 8 19 -4 14 55 59 98 76 44 16 209 6 275 -17z m1134 12 c83 -21 159
-58 196 -92 36 -35 38 -57 8 -66 -103 -27 -577 32 -604 75 -19 31 173 96 290
98 26 1 76 -6 110 -15z m-1724 -114 c0 -5 -7 -10 -16 -10 -8 0 -12 5 -9 10 3
6 10 10 16 10 5 0 9 -4 9 -10z m853 -690 c33 -5 106 -24 163 -41 132 -41 119
-53 -43 -40 -201 16 -301 -8 -338 -79 -24 -47 -17 -54 20 -21 57 50 26 47 530
38 132 -2 245 -5 252 -6 7 0 28 -15 48 -32 l35 -31 0 30 c0 23 -10 39 -43 69
l-44 38 44 2 c36 1 46 -3 59 -22 16 -25 11 -50 -8 -39 -7 4 -8 2 -4 -5 4 -6
12 -8 18 -5 8 5 9 1 5 -10 -5 -13 -3 -17 6 -13 8 3 13 -3 14 -14 1 -11 -3 -17
-8 -13 -6 3 -5 -2 1 -12 8 -13 9 -35 3 -69 -7 -45 -13 -53 -56 -82 -32 -21
-42 -33 -31 -35 9 -2 -152 -3 -357 -4 -327 0 -544 -10 -711 -30 -41 -5 -47 -3
-46 13 0 10 -4 62 -11 116 -12 102 -9 119 28 160 16 19 31 26 168 83 72 29
189 61 233 63 8 1 41 -3 73 -9z m107 -440 c-8 -5 -42 -9 -75 -9 -52 1 -55 3
-25 9 55 12 118 12 100 0z m-720 -555 c107 -8 274 -37 295 -51 11 -8 33 -13
50 -13 28 1 28 2 -8 9 -20 4 -40 10 -44 14 -4 3 7 4 23 1 16 -3 49 -10 74 -14
45 -9 45 -9 10 -12 -25 -2 -19 -4 25 -8 35 -4 63 -2 67 4 5 6 8 6 8 -1 0 -7
17 -11 43 -11 46 1 182 -17 262 -35 53 -11 126 -44 136 -60 4 -6 14 -6 28 1
12 7 27 9 33 5 7 -4 8 -3 4 4 -8 14 30 35 50 28 8 -3 13 -2 9 3 -7 12 17 17
245 46 403 51 544 64 556 52 11 -11 -10 -15 -356 -62 -358 -48 -422 -60 -457
-82 -12 -8 -28 -11 -34 -7 -7 4 -9 3 -6 -3 10 -16 -26 -39 -53 -33 -14 3 -53
20 -87 38 -54 27 -95 37 -300 71 -131 22 -296 50 -368 62 -167 28 -288 47
-344 54 -70 9 -63 17 9 11 36 -3 94 -8 130 -11z m-430 1 c0 -2 -7 -7 -16 -10
-8 -3 -12 -2 -9 4 6 10 25 14 25 6z m2341 -44 c-7 -2 -18 1 -23 6 -8 8 -4 9
13 5 13 -4 18 -8 10 -11z m657 -178 c93 -26 164 -66 234 -132 134 -127 167
-259 114 -454 -29 -107 -70 -222 -90 -249 -11 -17 -14 -13 -25 33 -16 72 -61
146 -125 206 -85 81 -298 174 -653 288 -122 39 -178 61 -168 67 9 4 37 1 67
-8 28 -8 83 -15 122 -15 72 0 236 -16 269 -26 9 -3 15 -9 12 -14 -3 -5 3 -11
12 -14 48 -13 -137 4 -241 23 -66 12 -121 20 -123 17 -2 -2 43 -13 99 -24 177
-36 241 -50 313 -70 168 -46 197 -36 126 46 -82 94 -76 84 -57 94 22 12 20 55
-3 101 -11 21 -14 33 -7 28 8 -7 24 -7 47 -1 60 17 125 11 209 -19 44 -16 80
-27 80 -24 0 3 8 0 18 -8 17 -14 -40 40 -66 62 -41 34 -128 62 -210 66 -83 5
-122 20 -122 46 0 12 97 1 168 -19z m-3170 -9 c1 -1 -42 -5 -95 -8 -184 -11
-279 -58 -385 -188 -42 -50 -70 -108 -93 -190 l-15 -54 5 45 c8 62 65 175 117
235 100 114 268 182 413 167 28 -2 51 -6 53 -7z m2849 7 c7 -4 -33 -9 -90 -11
-56 -1 -177 -6 -269 -9 -91 -4 -164 -5 -161 -2 15 16 497 36 520 22z m-1210
-8 c-3 -3 -12 -4 -19 -1 -8 3 -5 6 6 6 11 1 17 -2 13 -5z m265 -56 c120 -34
216 -64 214 -66 -3 -2 -69 15 -149 37 -84 24 -152 39 -162 35 -13 -6 -16 -4
-10 5 6 10 2 11 -15 6 -16 -5 -20 -4 -15 4 5 8 -1 10 -21 5 -21 -5 -25 -4 -19
6 5 9 4 11 -4 6 -6 -4 -17 -3 -24 2 -7 5 -21 12 -32 15 -19 5 -19 5 0 6 10 0
117 -27 237 -61z m381 35 c-7 -2 -19 -2 -25 0 -7 3 -2 5 12 5 14 0 19 -2 13
-5z m-817 -72 c-38 -39 -39 -39 -135 -45 -53 -4 -109 -9 -125 -11 -22 -4 -27
-2 -22 10 7 20 2 19 -139 -10 -66 -13 -128 -25 -137 -25 -9 0 -29 -5 -45 -11
-22 -8 -24 -12 -13 -19 8 -6 11 -10 5 -10 -5 0 -50 -2 -99 -3 l-89 -3 24 19
c108 87 363 141 689 145 l124 2 -38 -39z m721 -47 c-3 -3 -12 -4 -19 -1 -8 3
-5 6 6 6 11 1 17 -2 13 -5z m130 -40 c-3 -3 -12 -4 -19 -1 -8 3 -5 6 6 6 11 1
17 -2 13 -5z m23 -15 c-12 -8 -10 -10 10 -5 32 7 106 -14 88 -26 -7 -4 -20 -8
-28 -8 -13 0 -13 1 0 11 12 9 11 10 -7 6 -13 -3 -23 -1 -23 5 0 5 -9 7 -20 3
-11 -3 -24 -3 -30 0 -13 8 -3 25 13 25 7 0 6 -4 -3 -11z m-2266 -87 c33 -33
84 -72 111 -86 28 -14 44 -26 36 -26 -25 0 -91 23 -91 32 0 5 -4 6 -10 3 -5
-3 -10 -1 -10 4 0 6 -5 11 -11 11 -21 0 -135 62 -156 85 -33 34 -29 41 23 39
42 -2 52 -7 108 -62z m-442 -21 c4 -20 -13 -59 -29 -65 -18 -7 -38 61 -24 78
15 18 49 9 53 -13z m1934 -7 c90 -25 549 -179 874 -293 96 -34 229 -77 294
-97 123 -37 160 -54 170 -80 20 -52 -152 -28 -401 57 -81 28 -191 62 -243 76
-105 27 -220 63 -380 118 -58 20 -159 53 -225 72 -134 39 -251 95 -260 125 -9
27 12 48 50 48 18 0 73 -11 121 -26z m-213 -9 c-3 -9 -8 -14 -10 -11 -3 3 -2
9 2 15 9 16 15 13 8 -4z m-1946 -162 c-3 -10 -5 -4 -5 12 0 17 2 24 5 18 2 -7
2 -21 0 -30z m776 -294 c34 -17 69 -37 77 -44 18 -15 121 -41 200 -51 63 -8
110 -28 110 -48 0 -28 -67 -39 -214 -34 -150 6 -195 16 -203 48 -3 13 -19 24
-43 30 -43 12 -90 51 -90 76 0 29 31 54 67 54 18 0 62 -14 96 -31z m-123 -896
c0 -4 -5 -1 -11 7 -8 12 -9 11 -5 -5 7 -25 -9 -54 -22 -40 -36 41 -104 150
-104 168 -5 86 -1 85 72 -21 39 -56 70 -105 70 -109z m-156 -39 l-14 -49 5 49
c3 27 5 56 5 65 1 14 2 14 10 0 6 -10 4 -33 -6 -65z m184 5 c3 -11 2 -11 -7 1
-9 13 -11 13 -11 -2 0 -10 -4 -18 -10 -18 -11 0 -14 23 -3 34 10 10 26 2 31
-15z m1509 -91 c-3 -8 -6 -5 -6 6 -1 11 2 17 5 13 3 -3 4 -12 1 -19z m-1320
-24 c29 -5 30 -14 38 -186 l7 -148 -141 0 -141 0 0 45 0 45 -60 0 c-69 0 -65
-11 -47 132 7 53 19 103 26 111 10 13 37 14 154 10 78 -2 152 -6 164 -9z m701
-32 c8 -10 13 -57 14 -134 1 -65 2 -128 2 -140 1 -21 -4 -23 -66 -26 l-67 -3
-3 43 -3 43 -149 3 -148 3 4 -46 3 -45 -67 0 -67 0 -5 53 c-11 109 -16 245
-10 262 7 16 26 17 278 10 232 -6 273 -9 284 -23z m1820 -169 l2 -163 -64 0
-65 0 -3 48 -3 47 -142 3 -143 3 0 -46 0 -46 -67 3 -68 3 -3 138 c-1 84 2 145
8 157 11 20 20 20 278 18 l267 -3 3 -162z m446 145 c12 -19 36 -155 36 -205 0
-7 -19 -13 -52 -15 l-53 -3 -3 -47 -3 -48 -130 0 -129 0 0 163 c0 90 3 167 7
170 3 4 75 7 159 7 148 0 154 -1 168 -22z m-1266 -74 c9 -2 12 -64 11 -266 0
-145 -4 -283 -8 -308 -7 -43 -8 -44 -19 -20 l-11 25 0 -24 c-1 -19 -4 -21 -15
-12 -12 10 -15 8 -19 -11 -2 -13 -5 103 -6 258 l-1 281 -167 6 c-91 4 -219 7
-285 7 l-118 0 0 -120 0 -120 56 0 55 0 -2 -60 -2 -60 -59 0 -58 0 0 -89 c0
-69 -3 -90 -15 -94 -8 -4 -17 -2 -20 4 -4 5 -11 7 -16 4 -5 -4 -10 0 -10 7 -1
7 -5 0 -9 -17 -4 -16 -8 115 -9 292 -1 249 2 322 12 326 14 5 696 -3 715 -9z
m-799 -241 c-1 -165 -13 -428 -17 -374 -2 20 -6 22 -27 17 -19 -5 -25 -2 -26
11 -1 17 -2 17 -6 1 -2 -10 -13 -18 -23 -18 -17 0 -18 15 -20 270 l-1 270 61
0 60 0 -1 -177z m995 42 c-1 -320 -6 -420 -16 -392 -9 25 -28 38 -28 19 0 -4
-12 -8 -27 -7 -16 0 -31 -4 -35 -10 -4 -5 -8 108 -8 253 l0 263 58 -3 57 -3
-1 -120z m-324 -7 c0 -40 -3 -144 -7 -231 l-6 -157 -221 2 -220 3 -1 45 0 45
55 0 55 0 0 130 0 130 -57 3 -58 3 0 49 0 50 230 0 230 0 0 -72z m-1862 -20
l3 -38 165 0 166 0 -4 -129 c-2 -71 -6 -133 -11 -137 -4 -4 -14 1 -22 12 -13
18 -14 18 -15 1 0 -14 -4 -16 -17 -9 -27 14 -220 35 -286 31 -33 -3 -57 0 -57
6 -1 6 -10 -1 -21 -14 l-20 -25 5 65 c10 104 27 243 33 262 4 14 13 17 41 15
35 -3 37 -5 40 -40z m812 -3 l0 -44 98 -3 c70 -2 97 -6 96 -15 -1 -7 -2 -82
-3 -165 -1 -101 -5 -148 -11 -138 -9 14 -37 20 -99 20 -37 0 -261 19 -311 26
-25 4 -56 7 -70 8 -14 1 -31 5 -37 9 -9 5 -13 3 -13 -7 0 -9 -4 -16 -10 -16
-6 0 -10 53 -10 140 l0 140 95 0 95 0 0 45 0 45 90 0 90 0 0 -45z m1763 15
l47 0 0 -39 c0 -38 0 -38 46 -45 26 -3 69 -6 95 -6 l49 0 -1 -122 c-1 -68 -4
-113 -6 -100 -3 14 -10 22 -18 19 -7 -3 -18 0 -24 6 -8 8 -11 6 -11 -7 0 -14
-3 -16 -13 -8 -15 13 -109 14 -102 1 3 -4 -16 -11 -42 -14 -27 -4 -71 -10 -99
-15 -27 -5 -68 -6 -90 -3 -24 3 -59 -1 -88 -11 -27 -9 -50 -15 -52 -14 -1 2
-4 66 -5 143 l-2 139 96 -3 97 -3 0 47 0 48 38 -7 c20 -3 58 -6 85 -6z m731
-23 c3 4 6 0 6 -8 0 -8 3 -25 5 -39 5 -22 4 -23 -5 -5 -9 17 -10 15 -5 -12 2
-18 0 -33 -5 -33 -5 0 -10 -12 -12 -27 -2 -19 -13 -32 -33 -42 -16 -9 -41 -22
-55 -31 -14 -8 -34 -16 -45 -17 -11 -1 -50 -9 -87 -17 -36 -9 -80 -14 -97 -12
-17 2 -31 -1 -31 -6 0 -5 -4 -6 -10 -3 -5 3 -10 47 -10 97 l0 91 163 -4 162
-4 -2 30 c-3 47 3 56 31 46 13 -6 27 -7 30 -4z m-2161 -394 c-13 -2 -35 -2
-50 0 -16 2 -5 4 22 4 28 0 40 -2 28 -4z"/>
<path d="M3620 4320 c0 -5 4 -10 9 -10 6 0 13 5 16 10 3 6 -1 10 -9 10 -9 0
-16 -4 -16 -10z"/>
<path d="M5540 4041 c0 -6 5 -13 10 -16 6 -3 10 1 10 9 0 9 -4 16 -10 16 -5 0
-10 -4 -10 -9z"/>
<path d="M5571 4040 c0 -8 4 -24 9 -35 l9 -20 1 20 c1 11 4 14 7 8 2 -7 19
-13 36 -13 l32 0 -29 15 c-15 8 -34 15 -41 15 -7 0 -16 6 -18 13 -4 8 -5 7 -6
-3z"/>
<path d="M5735 1950 c-3 -5 -1 -10 4 -10 6 0 11 5 11 10 0 6 -2 10 -4 10 -3 0
-8 -4 -11 -10z"/>
<path d="M5062 7070 c0 -14 2 -19 5 -12 2 6 2 18 0 25 -3 6 -5 1 -5 -13z"/>
</g>
</svg>
